<?xml version="1.0" encoding="utf-8"?>
<!-- Generator: Adobe Illustrator 26.0.2, SVG Export Plug-In . SVG Version: 6.00 Build 0)  -->
<svg version="1.1" id="Calque_1" xmlns="http://www.w3.org/2000/svg" xmlns:xlink="http://www.w3.org/1999/xlink" x="0px" y="0px"
	 width="190px" height="75px" viewBox="0 0 190 75.3" style="enable-background:new 0 0 190 75.3;" xml:space="preserve">
<style type="text/css">
	.st0{fill:#1D1D1B;}
</style>
<g id="Calque_2_00000163054151761377364810000016101900560004091311_">
	<g id="Calque_1-2">
		<path class="st0" d="M145.4,23.6c2.5,0.8,8.1,2.6,8.1,8.8c0,2.7-1.3,5.3-3.5,6.9c-3.3,2.7-7.7,2.8-10,2.8c-2.9,0-5.8-0.5-8.5-1.4
			c-0.3-0.1-0.6-0.2-0.9-0.3l-0.3-0.5c0.2-2.3,0.2-2.6,0.4-4.9l0.6-0.2c2.5,1.9,5.5,2.9,8.7,2.8c4.9,0,6.7-2.6,6.7-4.4
			c0-2.7-2.7-3.6-6.5-4.8l-2-0.6c-2.6-0.8-8.1-2.5-8.1-8.5s5.6-9,12.6-9c3.1,0,6.1,0.6,9,1.6l0.3,0.4c-0.3,2.2-0.3,2.4-0.5,4.6
			l-0.6,0.2c-2.4-1.6-5.2-2.4-8-2.3c-0.9,0-1.8,0.1-2.7,0.3c-1.9,0.5-3.4,1.7-3.4,3.5c0,2.5,2.6,3.3,6.4,4.4L145.4,23.6z"/>
		<path class="st0" d="M189.6,25.7c-0.1-4.1-0.9-8.2-3.8-11.3c-2.7-2.9-6.9-4.2-11.2-4.2c-6.2,0-9.8,2.4-11.6,4.1
			c-4.2,3.9-4.3,9.7-4.3,11.9c0,1.9,0.1,7.9,4.3,12c2,2,5.5,3.9,11.2,3.9c4.4,0,8-1,10.8-3.6c2-1.9,3.5-4.4,4.1-7.1
			C189.5,29.4,189.7,27.5,189.6,25.7 M182.8,25.8c0.1,1.2,0,5.2-1.4,7.8c-1.4,2.6-4.2,4.1-7.1,3.9c-1.3,0-2.5-0.2-3.7-0.8
			c-4.9-2.3-5-8.2-5-10.5s0.2-5.9,1.9-8.3c1.5-2.2,4.1-3.5,6.8-3.4c2.7-0.2,5.2,1.1,6.7,3.3C182.5,20.5,182.8,24.4,182.8,25.8"/>
		<path class="st0" d="M123,26.2c0,2-1.7,3.7-3.7,3.7c-2,0-3.7-1.7-3.7-3.7c0-2,1.7-3.7,3.7-3.7C121.3,22.4,123,24.1,123,26.2
			C123,26.1,123,26.1,123,26.2"/>
		<path class="st0" d="M37.7,0.4c-0.1,4.5-0.1,7.3-0.1,11.4c0,9.8,0.2,19.6,0.7,29.5L38,41.6c-5.3-0.1-6.5,0-11.2,0.2l-0.3-0.4
			c0.3-8.3,0.3-10.2,0.2-18.1c-2.5-0.1-5-0.1-7.5-0.1s-4.7,0.1-7.5,0.2c0.1,8.5,0.1,10.6,0.5,17.9l-0.3,0.4c-5.5-0.1-6.6,0-11.2,0.2
			l-0.3-0.4c0.1-4.9,0.3-7.8,0.3-13.1C0.7,13.8,0.3,6.6,0,0.5l0.4-0.4c5.4,0,6.4,0,11.2-0.2l0.3,0.3l-0.1,15.5
			c2.2,0,4.4,0.1,6.6,0.1c2.8,0,5.5-0.1,8.3-0.1c-0.1-6.9-0.1-8.7-0.5-15.2l0.3-0.4c5.2,0,6,0,11-0.2L37.7,0.4z"/>
		<path class="st0" d="M73.8,32.9c-3,1.7-6.3,2.5-9.7,2.5c-3.7,0-6.3-1.1-7.8-3.2c-0.7-1.1-1.2-2.3-1.4-3.6L75,28.3l0.4-0.4
			c0.1-2.9-0.3-5.9-1-8.7c-2.2-6.9-7-8.3-9.1-8.8c-1.4-0.4-2.9-0.5-4.4-0.5c-9.8,0-16.3,6-16.3,16.2c-0.1,2.6,0.5,5.2,1.5,7.7
			c3.6,7.9,12.1,8.6,16.6,8.6c3.7,0.1,7.3-0.6,10.7-2.1l0.4-0.5l0.4-6.6L73.8,32.9z M54.9,22.4c0.2-1.8,0.6-4.3,3-5.7
			c0.8-0.4,1.6-0.7,2.5-0.7c1.6-0.1,3.1,0.7,4,2c0.7,1.2,1.1,2.6,0.9,4.1L54.9,22.4z"/>
		<path class="st0" d="M100.1,22.4c3.4,1.2,8.2,2.9,8.2,9.4c0,0.4,0,0.9-0.1,1.3c-1.1,8.4-10.5,9.2-15.2,9.2c-3.5,0-6.9-0.7-10.2-2
			l-0.3-0.5c0.3-2.9,0.3-3.6,0.4-6.6l0.6-0.2c0.7,0.6,1.6,1.2,2.4,1.7c2.1,1,4.3,1.6,6.6,1.6c3.5,0,4.9-1.6,4.9-3
			c0-2.1-2.7-3-4.4-3.5l-2.4-0.8c-2.9-1-8.1-2.9-8.1-9.2c0-1.9,0.6-3.7,1.7-5.1c3.2-4.4,9.3-4.6,12.4-4.6c3.2,0,6.4,0.5,9.5,1.5
			l0.3,0.3l-0.6,6.4l-0.6,0.2c-2.3-1.6-5-2.4-7.8-2.5c-3.9,0-4.4,1.9-4.4,2.6c0,1.6,1.7,2.3,3.8,3L100.1,22.4z"/>
		<g>
			<path class="st0" d="M5.7,61c-0.6,0.5-1.3,0.7-2.1,0.6c-0.7,0-1.5-0.2-2-0.6c-0.5-0.4-0.8-1.1-0.8-1.8v-4.9H2v4.9
				c0,0.9,0.5,1.3,1.6,1.3s1.6-0.4,1.6-1.3v-4.9h1.3v4.9C6.5,59.9,6.2,60.6,5.7,61z"/>
			<path class="st0" d="M10.8,56.2c0.9-0.1,1.7,0.6,1.8,1.5c0,0.1,0,0.2,0,0.3v3.5h-1.2v-3.3c0-0.7-0.3-1-0.9-1
				c-0.3,0-0.7,0.1-0.9,0.4c-0.2,0.3-0.4,0.6-0.3,1v2.8H8v-5.2h1.2v0.7C9.5,56.4,10.1,56.1,10.8,56.2z"/>
			<path class="st0" d="M15.2,55.5H14v-1.1h1.2V55.5z M15.2,61.5H14v-5.2h1.2V61.5z"/>
			<path class="st0" d="M19.1,58.6l0.7-2.3H21l-1.8,5.2H18l-1.9-5.2h1.3l0.8,2.3l0.5,1.9L19.1,58.6z"/>
			<path class="st0" d="M26.6,58.9v0.3h-3.9c0,0.4,0.1,0.8,0.4,1.1c0.3,0.3,0.6,0.4,1,0.4c0.6,0,1.1-0.3,1.3-0.9l1.1,0.1
				c-0.1,0.5-0.4,0.9-0.9,1.2c-0.4,0.3-1,0.5-1.5,0.4c-0.7,0-1.4-0.2-1.9-0.8c-0.9-1.1-0.9-2.8,0-3.9c0.5-0.5,1.2-0.8,1.9-0.8
				c0.7,0,1.3,0.2,1.8,0.7C26.4,57.5,26.7,58.2,26.6,58.9z M25,57.4c-0.2-0.2-0.6-0.4-0.9-0.3c-0.3,0-0.7,0.1-0.9,0.3
				c-0.3,0.3-0.4,0.6-0.4,1h2.7C25.4,58.1,25.2,57.7,25,57.4L25,57.4z"/>
			<path class="st0" d="M30.3,56.1c0.1,0,0.2,0,0.3,0v1.1h-0.3c-0.4,0-0.8,0.1-1,0.4c-0.3,0.3-0.4,0.7-0.4,1.1v2.7h-1.2v-5.2h1.1
				v0.9C29.1,56.6,29.7,56.1,30.3,56.1z"/>
			<path class="st0" d="M33.6,61.6c-0.6,0-1.1-0.1-1.6-0.4c-0.4-0.3-0.6-0.8-0.7-1.2h1.1c0.1,0.6,0.5,0.9,1.2,0.9
				c0.3,0,0.6,0,0.8-0.2c0.2-0.1,0.3-0.3,0.3-0.5c0-0.3-0.3-0.5-0.8-0.6l-1-0.2c-1-0.2-1.5-0.7-1.5-1.5c0-0.5,0.2-0.9,0.6-1.2
				c0.4-0.3,1-0.5,1.5-0.4c0.5,0,1.1,0.1,1.5,0.4c0.4,0.3,0.6,0.7,0.7,1.2h-1.1c-0.1-0.5-0.5-0.8-1.1-0.8c-0.2,0-0.5,0-0.7,0.2
				c-0.2,0.1-0.2,0.3-0.2,0.5c0,0.3,0.2,0.5,0.7,0.6l1.1,0.2c0.4,0.1,0.8,0.3,1.2,0.5c0.3,0.2,0.4,0.6,0.4,0.9c0,0.5-0.2,1-0.6,1.2
				C34.8,61.6,34.2,61.7,33.6,61.6z"/>
			<path class="st0" d="M38.1,55.5h-1.2v-1.1h1.2V55.5z M38.1,61.5h-1.2v-5.2h1.2V61.5z"/>
			<path class="st0" d="M42.2,57.2h-1.1v2.9c0,0.1,0,0.3,0.1,0.4c0.1,0.1,0.2,0.1,0.4,0.1h0.6v1h-1c-0.4,0-0.7-0.1-1-0.3
				c-0.2-0.3-0.3-0.7-0.3-1v-3h-0.8v-0.9h0.8v-1.6h1.2v1.6h1.1L42.2,57.2z"/>
			<path class="st0" d="M45.3,60.2l1.3-3.9h1.3l-2.3,6.1c-0.1,0.7-0.8,1.2-1.5,1.1h-0.9v-1h0.6c0.2,0,0.4,0,0.5-0.1
				c0.1-0.1,0.2-0.3,0.3-0.4l0.1-0.4l-2.1-5.3H44l1.2,3.2L45.3,60.2z"/>
			<path class="st0" d="M55.7,60.9c-0.5,0.5-1.2,0.8-1.9,0.8c-0.7,0-1.4-0.3-1.9-0.8c-1-1.1-1-2.8,0-3.9c1.1-1,2.7-1,3.8,0
				C56.6,58.1,56.6,59.7,55.7,60.9L55.7,60.9z M53.8,60.7c0.4,0,0.8-0.2,1.1-0.5c0.3-0.4,0.4-0.8,0.4-1.3c0-0.5-0.1-1-0.4-1.3
				c-0.3-0.3-0.7-0.5-1.1-0.5c-0.4,0-0.8,0.2-1,0.5c-0.3,0.4-0.5,0.8-0.5,1.3c0,0.5,0.1,0.9,0.4,1.3C53,60.5,53.4,60.7,53.8,60.7z"
				/>
			<path class="st0" d="M60.2,55.3h-0.5c-0.2,0-0.4,0-0.5,0.2c-0.1,0.1-0.2,0.3-0.1,0.5v0.4h1.1v0.9h-1.1v4.3h-1.2v-4.4h-0.8v-0.9
				h0.8v-0.4c-0.1-0.8,0.4-1.5,1.2-1.6c0.1,0,0.3,0,0.4,0h0.7L60.2,55.3z"/>
			<path class="st0" d="M70.1,61.5h-1.3l-0.6-1.8h-2.8l-0.7,1.8h-1.3l2.7-7.1h1.4L70.1,61.5z M66.3,56.9l-0.6,1.8h2.1l-0.6-1.8
				l-0.4-1.4L66.3,56.9z"/>
			<path class="st0" d="M73.9,56.2c0.6,0,1.2,0.2,1.6,0.7c0.4,0.5,0.7,1.2,0.6,1.9c0,0.7-0.2,1.4-0.6,2c-0.4,0.5-1,0.8-1.7,0.8
				c-0.6,0-1.1-0.2-1.5-0.7v2.6h-1.2v-7.3h1V57C72.5,56.4,73.2,56.1,73.9,56.2z M73.6,60.6c0.4,0,0.7-0.2,1-0.5
				c0.3-0.4,0.4-0.8,0.4-1.3c0-0.4-0.1-0.9-0.4-1.2c-0.2-0.3-0.6-0.5-1-0.4c-0.4,0-0.8,0.1-1,0.4c-0.3,0.4-0.4,0.8-0.4,1.2
				c0,0.5,0.1,0.9,0.4,1.3C72.8,60.5,73.2,60.6,73.6,60.6z"/>
			<path class="st0" d="M80,56.2c0.6,0,1.2,0.2,1.6,0.7c0.4,0.5,0.7,1.2,0.6,1.9c0,0.7-0.2,1.4-0.6,2c-0.4,0.5-1,0.8-1.7,0.8
				c-0.6,0-1.1-0.2-1.5-0.7v2.6h-1.2v-7.3h1V57C78.6,56.4,79.3,56.1,80,56.2z M79.7,60.6c0.4,0,0.7-0.2,1-0.5
				c0.3-0.4,0.4-0.8,0.4-1.3c0-0.4-0.1-0.9-0.4-1.2c-0.2-0.3-0.6-0.5-1-0.4c-0.4,0-0.8,0.1-1,0.4c-0.3,0.4-0.4,0.8-0.4,1.2
				c0,0.5,0.1,0.9,0.4,1.3C78.9,60.5,79.3,60.6,79.7,60.6z"/>
			<path class="st0" d="M84.6,61.5h-1.2v-7.1h1.2L84.6,61.5z"/>
			<path class="st0" d="M87.2,55.5H86v-1.1h1.2V55.5z M87.2,61.5H86v-5.2h1.2V61.5z"/>
			<path class="st0" d="M93.5,58.9v0.3h-3.9c0,0.4,0.2,0.8,0.4,1.1c0.3,0.3,0.6,0.4,1,0.4c0.6,0,1.1-0.3,1.2-0.8l1.1,0.1
				c-0.1,0.5-0.5,0.9-0.9,1.2c-0.4,0.3-1,0.4-1.5,0.4c-0.7,0-1.4-0.2-1.9-0.8c-0.5-0.6-0.7-1.3-0.7-2c0-0.7,0.2-1.4,0.7-1.9
				c1-1,2.7-1,3.7,0C93.2,57.4,93.5,58.2,93.5,58.9z M91.9,57.4c-0.5-0.5-1.3-0.5-1.9,0c-0.3,0.3-0.4,0.6-0.4,1h2.7
				C92.2,58.1,92.1,57.7,91.9,57.4L91.9,57.4z"/>
			<path class="st0" d="M98.1,56.9v-2.6h1.2v7.1h-1v-0.7c-0.3,0.6-1,0.9-1.6,0.9c-0.6,0-1.3-0.3-1.7-0.8c-0.4-0.6-0.7-1.3-0.6-2
				c0-0.7,0.2-1.3,0.6-1.9c0.4-0.5,1-0.7,1.6-0.7C97.1,56.2,97.7,56.4,98.1,56.9z M96.8,60.6c0.4,0,0.8-0.2,1-0.5
				c0.5-0.8,0.5-1.7,0-2.5c-0.3-0.3-0.6-0.5-1-0.4c-0.4,0-0.8,0.1-1,0.4c-0.2,0.4-0.3,0.8-0.3,1.2c0,0.5,0.1,0.9,0.4,1.3
				C96.1,60.4,96.4,60.6,96.8,60.6L96.8,60.6z"/>
			<path class="st0" d="M106.2,61.7c-0.8,0-1.6-0.2-2.2-0.6c-0.5-0.5-0.9-1.1-0.9-1.8h1.2c0.1,1,0.7,1.5,1.8,1.5
				c0.4,0,0.8-0.1,1.2-0.3c0.3-0.2,0.4-0.5,0.4-0.8c0-0.3-0.1-0.5-0.3-0.7c-0.3-0.2-0.7-0.4-1-0.4l-1.2-0.3
				c-1.3-0.3-1.9-0.9-1.9-1.9c0-0.6,0.2-1.2,0.7-1.5c0.6-0.4,1.2-0.6,2-0.6c0.7,0,1.4,0.2,2,0.6c0.5,0.4,0.8,1,0.8,1.7h-1.2
				c0-0.4-0.2-0.7-0.5-0.9c-0.3-0.2-0.8-0.3-1.2-0.3c-0.4,0-0.7,0.1-1,0.3c-0.2,0.2-0.4,0.4-0.4,0.7c0,0.5,0.4,0.8,1,0.9l1.4,0.3
				c1.4,0.3,2,1,2,2c0,0.6-0.3,1.2-0.8,1.6C107.7,61.5,106.9,61.7,106.2,61.7z"/>
			<path class="st0" d="M112.4,61.6c-0.7,0-1.4-0.2-1.8-0.7c-0.5-0.5-0.7-1.3-0.7-2c0-0.7,0.2-1.5,0.7-2c0.5-0.5,1.2-0.8,1.8-0.7
				c0.6,0,1.1,0.2,1.6,0.5c0.4,0.3,0.7,0.8,0.8,1.4h-1.2c-0.1-0.6-0.6-1-1.2-0.9c-0.4,0-0.8,0.1-1,0.5c-0.5,0.8-0.5,1.8,0,2.7
				c0.2,0.3,0.6,0.5,1,0.5c0.6,0,1.1-0.4,1.2-1h1.2c-0.1,0.6-0.3,1.1-0.8,1.4C113.6,61.5,113,61.7,112.4,61.6z"/>
			<path class="st0" d="M117.1,55.5h-1.2v-1.1h1.2L117.1,55.5z M117.1,61.5h-1.2v-5.2h1.2L117.1,61.5z"/>
			<path class="st0" d="M123.3,58.9v0.3h-3.9c0,0.4,0.1,0.8,0.4,1.1c0.3,0.3,0.6,0.4,1,0.4c0.6,0,1.1-0.3,1.2-0.8l1.1,0.1
				c-0.1,0.5-0.4,0.9-0.9,1.2c-0.4,0.3-1,0.4-1.5,0.4c-0.7,0-1.5-0.2-2-0.8c-0.5-0.6-0.7-1.3-0.7-2c0-0.7,0.2-1.4,0.7-1.9
				c1-1,2.7-1,3.7,0C123.1,57.5,123.4,58.2,123.3,58.9z M121.7,57.4c-0.5-0.5-1.3-0.5-1.9,0c-0.3,0.3-0.4,0.6-0.4,1h2.7
				C122.1,58.1,122,57.7,121.7,57.4L121.7,57.4z"/>
			<path class="st0" d="M127.3,56.2c0.5,0,0.9,0.1,1.3,0.5c0.3,0.3,0.5,0.8,0.5,1.3v3.5h-1.2v-3.3c0-0.7-0.3-1-0.9-1
				c-0.3,0-0.7,0.1-0.9,0.4c-0.2,0.3-0.4,0.6-0.3,1v2.8h-1.2v-5.2h1.1v0.7C126,56.4,126.6,56.1,127.3,56.2z"/>
			<path class="st0" d="M132.7,61.6c-0.7,0-1.4-0.2-1.8-0.7c-0.5-0.5-0.7-1.3-0.7-2c0-0.7,0.2-1.5,0.7-2c0.5-0.5,1.1-0.8,1.8-0.7
				c0.6,0,1.1,0.1,1.6,0.5c0.4,0.4,0.7,0.8,0.8,1.4h-1.2c-0.1-0.6-0.6-1-1.2-0.9c-0.4,0-0.8,0.1-1,0.5c-0.5,0.8-0.5,1.8,0,2.7
				c0.2,0.3,0.6,0.5,1,0.5c0.6,0,1.1-0.4,1.2-1h1.2c-0.1,0.6-0.3,1.1-0.8,1.4C133.8,61.5,133.3,61.7,132.7,61.6z"/>
			<path class="st0" d="M141,58.9v0.3H137c0,0.4,0.2,0.8,0.4,1.1c0.3,0.3,0.6,0.4,1,0.4c0.6,0,1.1-0.3,1.2-0.8l1.1,0.1
				c-0.1,0.5-0.4,0.9-0.9,1.2c-0.4,0.3-1,0.4-1.5,0.4c-0.7,0-1.4-0.2-1.9-0.8c-0.9-1.1-0.9-2.8,0-3.9c1-1,2.6-1,3.7,0
				C140.7,57.4,141,58.2,141,58.9z M139.3,57.4c-0.2-0.2-0.6-0.4-0.9-0.3c-0.3,0-0.7,0.1-0.9,0.3c-0.3,0.3-0.4,0.6-0.4,1h2.7
				C139.7,58.1,139.6,57.7,139.3,57.4L139.3,57.4z"/>
			<path class="st0" d="M144.1,61.6c-0.6,0-1.2-0.1-1.6-0.4c-0.4-0.3-0.6-0.8-0.7-1.3h1.1c0.1,0.6,0.5,0.9,1.2,0.9
				c0.3,0,0.6,0,0.8-0.2c0.2-0.1,0.3-0.3,0.3-0.5c0-0.3-0.3-0.5-0.8-0.6l-1-0.2c-1-0.2-1.5-0.7-1.5-1.5c0-0.5,0.2-0.9,0.5-1.2
				c0.4-0.3,1-0.5,1.5-0.4c0.5,0,1.1,0.1,1.5,0.4c0.4,0.3,0.6,0.7,0.7,1.2h-1.1c-0.1-0.5-0.5-0.8-1.1-0.8c-0.2,0-0.5,0-0.7,0.2
				c-0.2,0.1-0.2,0.3-0.2,0.5c0,0.3,0.2,0.5,0.7,0.6l1.1,0.2c0.4,0.1,0.8,0.3,1.2,0.5c0.3,0.2,0.4,0.6,0.4,0.9c0,0.5-0.2,1-0.6,1.2
				C145.3,61.5,144.7,61.7,144.1,61.6z"/>
			<path class="st0" d="M154.7,61.5h-1.2c-0.1-0.3-0.1-0.5-0.1-0.6c-0.4,0.5-1.1,0.8-1.7,0.8c-0.5,0-0.9-0.1-1.3-0.4
				c-0.3-0.3-0.5-0.7-0.5-1.1c0-0.9,0.6-1.4,1.7-1.6l1.7-0.3h0.1v-0.5c0-0.4-0.3-0.7-1-0.7c-0.3,0-0.5,0-0.8,0.2
				c-0.2,0.2-0.3,0.4-0.3,0.6H150c0.1-1.1,0.8-1.7,2.2-1.7s2.2,0.5,2.2,1.7v2.3C154.4,60.7,154.5,61.1,154.7,61.5z M151.9,60.7
				c0.4,0,0.7-0.1,1-0.3c0.3-0.2,0.4-0.5,0.4-0.9V59l-1.5,0.2c-0.6,0.1-0.9,0.4-0.9,0.8c0,0.2,0.1,0.4,0.2,0.5
				C151.4,60.7,151.6,60.7,151.9,60.7z"/>
			<path class="st0" d="M158.7,56.2c0.5,0,1,0.1,1.3,0.5c0.3,0.4,0.5,0.8,0.5,1.3v3.5h-1.2v-3.3c0-0.7-0.3-1-0.9-1
				c-0.3,0-0.7,0.1-0.9,0.4c-0.2,0.3-0.4,0.6-0.3,1v2.8h-1.2v-5.2h1.1v0.7C157.4,56.4,158,56.1,158.7,56.2z"/>
			<path class="st0" d="M165.4,56.9v-2.6h1.2v7.1h-1v-0.7c-0.3,0.6-1,0.9-1.6,0.9c-0.6,0-1.3-0.3-1.7-0.8c-0.4-0.6-0.7-1.3-0.6-2
				c0-0.7,0.2-1.4,0.6-1.9c0.4-0.5,1-0.7,1.6-0.7C164.5,56.1,165,56.4,165.4,56.9z M164.1,60.6c0.4,0,0.8-0.2,1-0.5
				c0.5-0.8,0.5-1.7,0-2.5c-0.3-0.3-0.6-0.5-1-0.4c-0.4,0-0.7,0.2-1,0.4c-0.3,0.4-0.4,0.8-0.4,1.2c0,0.5,0.1,0.9,0.4,1.3
				C163.4,60.4,163.7,60.6,164.1,60.6L164.1,60.6z"/>
			<path class="st0" d="M177,61.5h-1.4l-0.6-1.8h-2.9l-0.6,1.8h-1.3l2.7-7.1h1.4L177,61.5z M173.2,56.9l-0.6,1.8h2.1l-0.6-1.8
				l-0.4-1.4L173.2,56.9z"/>
			<path class="st0" d="M180.6,56.1c0.1,0,0.2,0,0.3,0v1.1h-0.3c-0.4,0-0.7,0.1-1,0.4c-0.3,0.3-0.4,0.7-0.4,1.1v2.7H178v-5.2h1.2
				v0.9C179.4,56.6,180,56.1,180.6,56.1z"/>
			<path class="st0" d="M184.8,57.2h-1.1v2.9c0,0.1,0,0.3,0.1,0.4c0.1,0.1,0.2,0.1,0.4,0.1h0.6v1h-1c-0.4,0-0.7-0.1-1-0.3
				c-0.2-0.3-0.3-0.6-0.3-1v-3h-0.8v-0.9h0.8v-1.6h1.2v1.6h1.1L184.8,57.2z"/>
			<path class="st0" d="M187.7,61.6c-0.6,0-1.1-0.1-1.6-0.4c-0.4-0.3-0.7-0.8-0.7-1.3h1.1c0.1,0.6,0.5,0.9,1.2,0.9
				c0.3,0,0.6,0,0.8-0.2c0.2-0.1,0.3-0.3,0.3-0.5c0-0.3-0.3-0.5-0.8-0.6l-1-0.2c-1-0.2-1.5-0.7-1.5-1.5c0-0.5,0.2-0.9,0.6-1.2
				c0.4-0.3,1-0.5,1.5-0.4c0.5,0,1.1,0.1,1.5,0.4c0.4,0.3,0.6,0.7,0.7,1.2h-1.1c-0.1-0.5-0.5-0.8-1.1-0.8c-0.2,0-0.5,0-0.7,0.2
				c-0.2,0.1-0.2,0.3-0.2,0.5c0,0.3,0.2,0.5,0.7,0.6l1.1,0.2c0.4,0.1,0.8,0.3,1.2,0.5c0.2,0.3,0.3,0.6,0.3,0.9c0,0.5-0.2,1-0.6,1.2
				C188.9,61.5,188.3,61.7,187.7,61.6z"/>
		</g>
		<g>
			<path class="st0" d="M98.3,71.8l1-4h1.3l-2,7.3h-1.2L96,69.4l-1.4,5.7h-1.2l-2-7.3h1.3l1,4l0.3,1.5l0.4-1.5l1-4h1.3l1,4l0.3,1.5
				L98.3,71.8z"/>
			<path class="st0" d="M105.9,72.5v0.3H102c0,0.4,0.1,0.8,0.4,1.1c0.3,0.3,0.6,0.4,1,0.4c0.6,0,1.1-0.3,1.2-0.9l1.1,0.1
				c-0.1,0.5-0.4,1-0.9,1.3c-0.4,0.3-1,0.5-1.5,0.4c-0.7,0-1.4-0.3-1.9-0.8c-0.5-0.6-0.7-1.3-0.7-2c0-0.7,0.2-1.5,0.7-2
				c0.5-0.5,1.2-0.8,1.9-0.8c0.7,0,1.4,0.2,1.9,0.8C105.7,71,105.9,71.7,105.9,72.5z M104.3,71c-0.5-0.5-1.3-0.5-1.9,0
				c-0.3,0.3-0.4,0.6-0.4,1h2.7C104.6,71.6,104.5,71.3,104.3,71z"/>
			<path class="st0" d="M109,75.3c-0.6,0-1.2-0.1-1.6-0.5c-0.4-0.3-0.6-0.8-0.7-1.3h1.1c0.1,0.6,0.5,0.9,1.2,0.9
				c0.3,0,0.6,0,0.8-0.2c0.2-0.1,0.3-0.3,0.3-0.5c0-0.3-0.3-0.5-0.8-0.6l-1-0.2c-1-0.2-1.5-0.7-1.5-1.5c-0.1-0.5,0.1-1,0.5-1.3
				c0.4-0.3,1-0.5,1.5-0.4c0.5,0,1.1,0.1,1.5,0.4c0.4,0.3,0.6,0.7,0.7,1.2H110c-0.1-0.6-0.5-0.8-1.1-0.8c-0.2,0-0.5,0-0.7,0.2
				c-0.2,0.1-0.3,0.3-0.2,0.5c0,0.3,0.2,0.5,0.7,0.6l1.1,0.2c0.4,0.1,0.8,0.3,1.2,0.5c0.3,0.3,0.4,0.6,0.4,1c0,0.5-0.2,1-0.6,1.3
				C110.2,75.1,109.6,75.3,109,75.3z"/>
			<path class="st0" d="M115,70.7h-1.1v2.9c0,0.1,0,0.3,0.1,0.4c0.1,0.1,0.3,0.1,0.4,0.1h0.6v1h-1c-0.4,0-0.7-0.1-1-0.3
				c-0.2-0.3-0.3-0.6-0.3-1v-3h-0.8v-0.9h0.8v-1.7h1.2v1.7h1.1V70.7z"/>
			<path class="st0" d="M120.8,72.5v0.3h-3.9c0,0.4,0.1,0.8,0.4,1.1c0.3,0.3,0.6,0.4,1,0.4c0.6,0,1.1-0.3,1.2-0.9l1.1,0.1
				c-0.1,0.5-0.4,1-0.9,1.3c-0.4,0.3-1,0.5-1.5,0.4c-0.7,0-1.4-0.3-1.9-0.8c-0.5-0.6-0.7-1.3-0.7-2c0-0.7,0.2-1.5,0.7-2
				c0.5-0.5,1.2-0.8,1.9-0.8c0.7,0,1.4,0.2,1.9,0.8C120.5,71,120.8,71.7,120.8,72.5z M119.1,71c-0.2-0.2-0.6-0.4-0.9-0.3
				c-0.3,0-0.7,0.1-0.9,0.3c-0.3,0.3-0.4,0.6-0.4,1h2.7C119.5,71.6,119.4,71.2,119.1,71z"/>
			<path class="st0" d="M124.5,69.7c0.1,0,0.2,0,0.3,0v1.1h-0.3c-0.4,0-0.8,0.1-1,0.4c-0.3,0.3-0.4,0.7-0.4,1.2v2.7h-1.2v-5.3h1.1v1
				C123.2,70.2,123.8,69.7,124.5,69.7z"/>
			<path class="st0" d="M128.5,69.7c0.5,0,0.9,0.1,1.3,0.5c0.3,0.4,0.5,0.8,0.5,1.3v3.6H129v-3.4c0-0.7-0.3-1-0.9-1
				c-0.3,0-0.7,0.1-0.9,0.4c-0.2,0.3-0.4,0.7-0.3,1.1v2.9h-1.2v-5.3h1.1v0.7C127.2,70,127.8,69.6,128.5,69.7z"/>
			<path class="st0" d="M137.2,75.3c-0.8,0-1.5-0.2-2.2-0.7c-0.5-0.5-0.9-1.1-0.9-1.9h1.2c0.1,1,0.7,1.5,1.8,1.5
				c0.4,0,0.8-0.1,1.2-0.3c0.3-0.2,0.4-0.5,0.4-0.8c0-0.3-0.1-0.5-0.3-0.7c-0.3-0.2-0.7-0.3-1-0.4l-1.2-0.3c-1.3-0.3-1.9-1-1.9-2
				c0-0.6,0.2-1.2,0.7-1.6c0.6-0.4,1.3-0.7,2-0.6c0.7,0,1.4,0.2,2,0.6c0.5,0.4,0.8,1,0.8,1.7h-1.2c0-0.4-0.2-0.7-0.5-0.9
				c-0.3-0.2-0.7-0.4-1.2-0.3c-0.4,0-0.7,0.1-1,0.3c-0.2,0.2-0.4,0.5-0.4,0.8c0,0.5,0.4,0.8,1,1L138,71c1.4,0.3,2,1,2,2.1
				c0,0.6-0.3,1.2-0.8,1.6C138.7,75.1,137.9,75.4,137.2,75.3z"/>
			<path class="st0" d="M146.2,72.5l0.7-2.7h1.2l-1.7,5.3h-1.2l-0.8-3l-0.2-1l-0.2,1l-0.8,3h-1.2l-1.6-5.3h1.3l0.7,2.7l0.3,1.3
				l0.3-1.3l0.7-2.7h1.2l0.7,2.7l0.3,1.3L146.2,72.5z"/>
			<path class="st0" d="M150.4,69h-1.2v-1.2h1.2V69z M150.4,75.1h-1.2v-5.3h1.2V75.1z"/>
			<path class="st0" d="M154.4,70.7h-1.1v2.9c0,0.1,0,0.3,0.1,0.4c0.1,0.1,0.2,0.1,0.4,0.1h0.6v1h-0.9c-0.6,0.1-1.2-0.3-1.3-0.9
				c0-0.1,0-0.3,0-0.4v-3h-0.8v-0.9h0.8v-1.7h1.2v1.7h1.1L154.4,70.7z"/>
			<path class="st0" d="M159.3,70.7l-2.8,3.5h3v1H155v-1l2.9-3.4h-2.7v-1h4.1L159.3,70.7z"/>
			<path class="st0" d="M165.3,72.5v0.3h-3.9c0,0.4,0.1,0.8,0.4,1.1c0.3,0.3,0.6,0.4,1,0.4c0.6,0,1.1-0.3,1.2-0.9l1.1,0.1
				c-0.1,0.5-0.4,1-0.9,1.3c-0.4,0.3-1,0.5-1.5,0.4c-0.7,0-1.4-0.3-1.9-0.8c-1-1.2-1-2.9,0-4.1c0.5-0.5,1.2-0.8,1.9-0.8
				c0.7,0,1.4,0.2,1.9,0.8C165.1,71,165.3,71.7,165.3,72.5z M163.6,71c-0.2-0.2-0.6-0.4-0.9-0.3c-0.3,0-0.7,0.1-0.9,0.3
				c-0.3,0.3-0.4,0.6-0.4,1h2.7C164,71.6,163.9,71.2,163.6,71z"/>
			<path class="st0" d="M169,69.7c0.1,0,0.2,0,0.3,0v1.1H169c-0.4,0-0.8,0.1-1,0.4c-0.3,0.3-0.4,0.7-0.4,1.2v2.7h-1.2v-5.3h1.1v1
				C167.7,70.2,168.3,69.7,169,69.7z"/>
			<path class="st0" d="M171.4,75.1h-1.2v-7.3h1.2V75.1z"/>
			<path class="st0" d="M177.4,75.1h-1.2c-0.1-0.3-0.1-0.5-0.1-0.6c-0.4,0.5-1.1,0.8-1.7,0.8c-0.5,0-0.9-0.1-1.3-0.4
				c-0.3-0.3-0.5-0.7-0.5-1.2c0-0.9,0.6-1.4,1.7-1.6l1.7-0.3h0.1v-0.5c0-0.5-0.4-0.7-1-0.7c-0.3,0-0.5,0-0.8,0.2
				c-0.2,0.2-0.3,0.4-0.3,0.6h-1.2c0.1-1.1,0.8-1.7,2.2-1.7c1.5,0,2.2,0.6,2.2,1.8v2.4C177.2,74.3,177.2,74.7,177.4,75.1z
				 M174.6,74.4c0.4,0,0.7-0.1,1-0.3c0.3-0.2,0.4-0.5,0.4-0.9v-0.6l-1.5,0.3c-0.6,0.1-0.9,0.4-0.9,0.8c0,0.2,0.1,0.4,0.2,0.5
				C174.2,74.3,174.4,74.4,174.6,74.4z"/>
			<path class="st0" d="M181.4,69.7c0.5,0,1,0.2,1.3,0.5c0.3,0.4,0.5,0.8,0.5,1.3v3.6H182v-3.4c0-0.7-0.3-1-0.9-1
				c-0.3,0-0.7,0.1-0.9,0.4c-0.2,0.3-0.3,0.7-0.3,1.1v2.9h-1.2v-5.3h1.1v0.7C180.1,70,180.7,69.7,181.4,69.7z"/>
			<path class="st0" d="M188.1,70.4v-2.6h1.2v7.3h-1v-0.8c-0.3,0.6-1,0.9-1.6,0.9c-0.7,0-1.3-0.3-1.7-0.8c-0.4-0.6-0.7-1.3-0.6-2
				c0-0.7,0.2-1.4,0.6-2c0.4-0.5,1-0.7,1.6-0.7C187.1,69.7,187.7,69.9,188.1,70.4z M186.8,74.2c0.4,0,0.8-0.2,1-0.5
				c0.3-0.4,0.4-0.8,0.4-1.3c0-0.5-0.1-0.9-0.4-1.3c-0.3-0.3-0.6-0.5-1-0.4c-0.4,0-0.7,0.2-1,0.4c-0.3,0.4-0.4,0.8-0.4,1.3
				c0,0.5,0.1,0.9,0.4,1.3C186.1,74,186.4,74.2,186.8,74.2L186.8,74.2z"/>
		</g>
	</g>
</g>
</svg>
